<svg width="214" height="30" viewBox="0 0 214 30" fill="none" xmlns="http://www.w3.org/2000/svg">
<path d="M15.92 0.999998V4.52H8.84C6.14667 4.52 4.8 5.61333 4.8 7.8C4.8 8.97333 5.38667 9.97333 6.56 10.8C7.76 11.6 9.37333 12.3733 11.4 13.12C12.3067 13.4667 13.08 13.8267 13.72 14.2C14.36 14.5467 15 15.0133 15.64 15.6C16.28 16.1867 16.76 16.9467 17.08 17.88C17.4 18.7867 17.56 19.84 17.56 21.04C17.56 22.3733 17.28 23.5733 16.72 24.64C16.16 25.68 15.44 26.5067 14.56 27.12C13.68 27.7067 12.7733 28.16 11.84 28.48C10.9333 28.7733 10.04 28.9333 9.16 28.96C8.78667 28.9867 8.25333 29 7.56 29H1.32V25.48H7.44C9.25333 25.48 10.7333 25.1067 11.88 24.36C13.0267 23.5867 13.6 22.4667 13.6 21C13.6 20.28 13.44 19.6533 13.12 19.12C12.8 18.56 12.3333 18.08 11.72 17.68C11.1333 17.28 10.52 16.9333 9.88 16.64C9.26667 16.3467 8.52 16.04 7.64 15.72C7.4 15.64 7.21333 15.5733 7.08 15.52C2.89333 13.92 0.8 11.3067 0.8 7.68C0.8 5.44 1.52 3.77333 2.96 2.68C4.4 1.56 6.28 0.999998 8.6 0.999998H15.92ZM21.7563 9.8H39.3963C41.2896 9.8 42.7963 10.16 43.9163 10.88C45.0629 11.6 45.8096 12.5333 46.1563 13.68C46.5296 14.8267 46.7163 16.2 46.7163 17.8V29H43.1963V17.8C43.1963 15.72 42.5696 14.3467 41.3163 13.68C40.6763 13.3333 39.3829 13.16 37.4363 13.16H35.7963V29H32.2763V13.16H25.2763V29H21.7563V9.8ZM62.1972 17.72V21.32C61.1839 20.5467 59.9439 20.16 58.4772 20.16C57.2239 20.16 56.2505 20.4133 55.5572 20.92C54.8639 21.4 54.5172 22.0933 54.5172 23C54.5172 24.76 55.8239 25.64 58.4372 25.64H63.7172V18C63.7172 14.7733 62.1439 13.16 58.9972 13.16H52.5972V9.8H59.1972C61.7839 9.8 63.7705 10.44 65.1572 11.72C66.5439 13 67.2372 14.84 67.2372 17.24V29H58.3172C56.0505 29 54.2505 28.4933 52.9172 27.48C51.5839 26.4667 50.9172 24.9867 50.9172 23.04C50.9172 21.0933 51.6239 19.6133 53.0372 18.6C54.4505 17.5867 56.2239 17.08 58.3572 17.08C59.5572 17.08 60.8372 17.2933 62.1972 17.72ZM71.0344 29V18.08C71.0344 15.0133 71.6077 12.8933 72.7544 11.72C73.3144 11.1333 73.9944 10.6933 74.7944 10.4C75.5944 10.1067 76.2877 9.93333 76.8744 9.88C77.4877 9.82667 78.3144 9.8 79.3544 9.8H82.8744V13.16H78.6344C78.101 13.16 77.6877 13.1733 77.3944 13.2C77.101 13.2267 76.7544 13.32 76.3544 13.48C75.9544 13.64 75.6077 13.8933 75.3144 14.24C74.8077 14.88 74.5544 16.16 74.5544 18.08V29H71.0344ZM83.4625 13.16L90.6225 6V9.8H96.0225V13.16H90.6225V21.4C90.6225 22.3333 90.7692 23.1067 91.0625 23.72C91.3825 24.3333 91.8358 24.7733 92.4225 25.04C93.0092 25.28 93.5558 25.44 94.0625 25.52C94.5958 25.6 95.2492 25.64 96.0225 25.64V29C92.9558 29 90.6892 28.4133 89.2225 27.24C87.7558 26.0667 87.0225 24.12 87.0225 21.4V13.16H83.4625ZM131.453 15.12C131.427 13.6267 131.2 12.2133 130.773 10.88C130.373 9.54667 129.773 8.38667 128.973 7.4C128.2 6.38667 127.253 5.58667 126.133 5C125.013 4.41333 123.747 4.12 122.333 4.12C120.92 4.12 119.653 4.41333 118.533 5C117.413 5.58667 116.453 6.38667 115.653 7.4C114.88 8.38667 114.28 9.54667 113.853 10.88C113.453 12.2133 113.24 13.6267 113.213 15.12C113.24 16.64 113.453 18.0533 113.853 19.36C114.28 20.6667 114.88 21.8 115.653 22.76C116.453 23.72 117.413 24.48 118.533 25.04C119.653 25.6 120.92 25.88 122.333 25.88C123.747 25.88 125.013 25.6 126.133 25.04C127.253 24.48 128.2 23.72 128.973 22.76C129.773 21.8 130.373 20.6667 130.773 19.36C131.2 18.0533 131.427 16.64 131.453 15.12ZM109.173 15.12C109.2 12.9067 109.533 10.9067 110.173 9.12C110.813 7.33333 111.707 5.81333 112.853 4.56C114 3.28 115.373 2.30667 116.973 1.64C118.573 0.946665 120.36 0.599998 122.333 0.599998C124.28 0.599998 126.053 0.946665 127.653 1.64C129.28 2.30667 130.667 3.28 131.813 4.56C132.96 5.81333 133.853 7.33333 134.493 9.12C135.133 10.9067 135.467 12.9067 135.493 15.12C135.467 17.3333 135.133 19.32 134.493 21.08C133.88 22.84 133 24.3333 131.853 25.56C130.707 26.7867 129.32 27.7333 127.693 28.4C126.093 29.0667 124.307 29.4 122.333 29.4C120.36 29.4 118.56 29.0667 116.933 28.4C115.333 27.7333 113.96 26.7867 112.813 25.56C111.667 24.3333 110.773 22.84 110.133 21.08C109.52 19.32 109.2 17.3333 109.173 15.12ZM139.706 29V18.08C139.706 15.0133 140.28 12.8933 141.426 11.72C141.986 11.1333 142.666 10.6933 143.466 10.4C144.266 10.1067 144.96 9.93333 145.546 9.88C146.16 9.82667 146.986 9.8 148.026 9.8H151.546V13.16H147.306C146.773 13.16 146.36 13.1733 146.066 13.2C145.773 13.2267 145.426 13.32 145.026 13.48C144.626 13.64 144.28 13.8933 143.986 14.24C143.48 14.88 143.226 16.16 143.226 18.08V29H139.706ZM169.134 0.999998H172.734V29H163.334C160.428 29 158.068 28.08 156.254 26.24C154.441 24.3733 153.534 22.0267 153.534 19.2C153.534 16.4267 154.468 14.1067 156.334 12.24C158.228 10.3467 160.468 9.4 163.054 9.4C164.708 9.4 166.254 9.8 167.694 10.6V14.2C166.361 13.24 164.814 12.76 163.054 12.76C161.454 12.76 160.094 13.36 158.974 14.56C157.881 15.7333 157.334 17.28 157.334 19.2C157.334 21.1467 157.854 22.7067 158.894 23.88C159.961 25.0533 161.441 25.64 163.334 25.64H169.134V0.999998ZM186.933 9.4C191.466 9.58667 193.733 11.4667 193.733 15.04C193.733 19.4933 190.813 21.72 184.973 21.72H183.333V18.64H185.253C187.039 18.64 188.279 18.3733 188.973 17.84C189.666 17.28 190.013 16.36 190.013 15.08C190.013 14.2533 189.706 13.64 189.093 13.24C188.479 12.8133 187.693 12.6 186.733 12.6C184.839 12.6 183.346 13.2667 182.253 14.6C181.186 15.9333 180.653 17.5333 180.653 19.4C180.653 21.3733 181.226 22.9733 182.373 24.2C183.546 25.4267 185.066 26.04 186.933 26.04C188.613 26.04 189.986 25.6267 191.053 24.8L193.453 27.16C191.613 28.6533 189.439 29.4 186.933 29.4C183.893 29.4 181.466 28.5067 179.653 26.72C177.839 24.9333 176.933 22.6267 176.933 19.8C176.933 16.6533 177.826 14.1067 179.613 12.16C181.399 10.2133 183.839 9.29333 186.933 9.4ZM207.128 9.4C211.661 9.58667 213.928 11.4667 213.928 15.04C213.928 19.4933 211.008 21.72 205.168 21.72H203.528V18.64H205.448C207.235 18.64 208.475 18.3733 209.168 17.84C209.861 17.28 210.208 16.36 210.208 15.08C210.208 14.2533 209.901 13.64 209.288 13.24C208.675 12.8133 207.888 12.6 206.928 12.6C205.035 12.6 203.541 13.2667 202.448 14.6C201.381 15.9333 200.848 17.5333 200.848 19.4C200.848 21.3733 201.421 22.9733 202.568 24.2C203.741 25.4267 205.261 26.04 207.128 26.04C208.808 26.04 210.181 25.6267 211.248 24.8L213.648 27.16C211.808 28.6533 209.635 29.4 207.128 29.4C204.088 29.4 201.661 28.5067 199.848 26.72C198.035 24.9333 197.128 22.6267 197.128 19.8C197.128 16.6533 198.021 14.1067 199.808 12.16C201.595 10.2133 204.035 9.29333 207.128 9.4Z" fill="white"/>
</svg>
